<?xml version="1.0" standalone="no"?>
<!DOCTYPE svg PUBLIC "-//W3C//DTD SVG 20010904//EN"
 "http://www.w3.org/TR/2001/REC-SVG-20010904/DTD/svg10.dtd">
<svg version="1.0" xmlns="http://www.w3.org/2000/svg"
 width="64.000000pt" height="64.000000pt" viewBox="0 0 64.000000 64.000000"
 preserveAspectRatio="xMidYMid meet">

<g transform="translate(0.000000,64.000000) scale(0.100000,-0.100000)"
fill="#000000" stroke="none">
<path d="M228 625 c-62 -17 -107 -45 -158 -101 -58 -63 -70 -98 -70 -201 0
-106 18 -150 91 -218 75 -70 126 -90 234 -90 104 0 156 19 225 81 80 73 90 98
90 229 0 104 -2 119 -24 153 -27 43 -92 104 -133 125 -69 35 -175 44 -255 22z
m239 -50 c176 -87 216 -304 79 -440 -108 -108 -261 -125 -393 -44 -28 18 -31
23 -19 33 12 9 15 48 18 199 3 174 2 188 -15 193 -10 3 -21 3 -25 -1 -4 -3 -5
-93 -4 -198 l2 -192 -30 35 c-32 37 -60 113 -60 165 0 88 58 187 137 236 89
55 214 60 310 14z"/>
<path d="M257 479 c-21 -5 -51 -16 -67 -24 l-30 -16 0 -104 c0 -57 4 -106 8
-109 5 -3 32 4 61 14 62 24 90 25 139 4 47 -20 102 -20 141 1 l31 16 0 109 c0
122 -1 124 -65 93 -33 -16 -39 -16 -83 -1 -68 24 -92 27 -135 17z"/>
</g>
</svg>
