<?xml version="1.0" encoding="UTF-8"?>
<svg width="700pt" height="700pt" version="1.1" viewBox="0 0 700 700" xmlns="http://www.w3.org/2000/svg" xmlns:xlink="http://www.w3.org/1999/xlink">
 <defs>
  <symbol id="w" overflow="visible">
   <path d="m0.03125 0h-0.015625-0.015625v-0.015625-0.015625h0.015625 0.015625-0.015625v0.015625 0.015625h0.015625v-0.015625z"/>
  </symbol>
  <symbol id="e" overflow="visible">
   <path d="m0.015625-0.015625v0.015625h-0.015625v-0.03125h0.015625v0.015625-0.015625z"/>
  </symbol>
  <symbol id="b" overflow="visible">
   <path d="m0.03125-0.015625h-0.015625v0.015625c0.0078125 0 0.015625-0.0039062 0.015625-0.015625v0.015625h-0.015625-0.015625v-0.015625l0.015625-0.015625v0.015625h0.015625z"/>
  </symbol>
  <symbol id="a" overflow="visible">
   <path d="m0.015625-0.015625v0.015625-0.015625zm0.015625 0v0.015625h-0.015625-0.015625v-0.015625h0.015625-0.015625v-0.015625h0.015625v0.015625h0.015625z"/>
  </symbol>
  <symbol id="d" overflow="visible">
   <path d="m0.015625-0.03125v0.015625 0.015625h-0.015625v-0.015625-0.015625z"/>
  </symbol>
  <symbol id="l" overflow="visible">
   <path d="m0.015625-0.015625v-0.015625h0.015625v0.03125h-0.015625-0.015625v-0.015625l0.015625-0.015625v0.015625zm0 0.015625v-0.015625 0.015625z"/>
  </symbol>
  <symbol id="k" overflow="visible">
   <path d="m0.015625 0v-0.015625 0.015625zm0-0.015625v-0.015625c0.0078125 0 0.015625 0.0078125 0.015625 0.015625v0.015625h-0.015625-0.015625v-0.03125h0.015625z"/>
  </symbol>
  <symbol id="j" overflow="visible">
   <path d="m0-0.03125h0.015625v0.015625-0.015625h0.015625l-0.015625 0.03125v0.015625h-0.015625v-0.015625h0.015625z"/>
  </symbol>
  <symbol id="i" overflow="visible">
   <path d="m0.015625-0.03125v0.015625 0.015625h0.015625v-0.015625c0-0.0078125-0.0078125-0.015625-0.015625-0.015625zm0 0h0.015625v0.015625 0.015625h-0.015625-0.015625v-0.015625-0.015625h0.015625z"/>
  </symbol>
  <symbol id="v" overflow="visible">
   <path d="m0-0.03125h0.015625v0.03125h-0.015625z"/>
  </symbol>
  <symbol id="f" overflow="visible">
   <path d="m0.03125-0.015625v0.015625h-0.015625v-0.015625 0.015625h-0.015625v-0.03125h0.015625v0.015625-0.015625c0.0078125 0 0.015625 0.0078125 0.015625 0.015625z"/>
  </symbol>
  <symbol id="h" overflow="visible">
   <path d="m0-0.03125h0.015625 0.015625v0.015625h-0.015625v0.015625h-0.015625zm0.015625 0v0.015625-0.015625z"/>
  </symbol>
  <symbol id="g" overflow="visible">
   <path d="m0.03125-0.03125v0.015625h-0.015625c0.0078125 0 0.015625 0.0078125 0.015625 0.015625h-0.015625-0.015625 0.015625v-0.015625h-0.015625l0.015625-0.015625h0.015625z"/>
  </symbol>
  <symbol id="c" overflow="visible">
   <path d="m0.015625-0.015625v0.015625-0.015625zm0-0.015625v0.015625h0.015625c0 0.011719-0.0078125 0.015625-0.015625 0.015625h-0.015625v-0.015625l0.015625-0.015625z"/>
  </symbol>
  <symbol id="u" overflow="visible">
   <path d="m0-0.03125h0.015625v0.015625-0.015625h0.015625l-0.015625 0.03125z"/>
  </symbol>
  <symbol id="t" overflow="visible">
   <path d="m0-0.03125h0.015625v0.015625-0.015625h0.015625l-0.015625 0.015625 0.015625 0.015625h-0.015625v-0.015625 0.015625h-0.015625z"/>
  </symbol>
  <symbol id="s" overflow="visible">
   <path d="m0.015625-0.03125v0.03125h-0.015625v-0.03125h0.015625z"/>
  </symbol>
  <symbol id="r" overflow="visible">
   <path d="m0.03125-0.015625v-0.015625c0.0078125 0 0.015625 0.0078125 0.015625 0.015625v0.015625h-0.015625v-0.015625 0.015625h-0.015625v-0.015625 0.015625h-0.015625v-0.03125h0.015625v0.015625-0.015625 0.015625h0.015625z"/>
  </symbol>
  <symbol id="q" overflow="visible">
   <path d="m0.03125-0.015625v0.015625h-0.015625v-0.015625 0.015625h-0.015625v-0.03125h0.015625v0.015625-0.015625c0.0078125 0 0.015625 0.0078125 0.015625 0.015625z"/>
  </symbol>
  <symbol id="p" overflow="visible">
   <path d="m0-0.03125h0.015625l0.015625 0.015625v-0.015625 0.03125l-0.015625-0.015625v0.015625h-0.015625z"/>
  </symbol>
  <symbol id="o" overflow="visible">
   <path d="m0-0.015625v-0.015625h0.015625v0.015625 0.015625-0.015625-0.015625h0.015625v0.03125h-0.015625-0.015625v-0.015625z"/>
  </symbol>
  <symbol id="n" overflow="visible">
   <path d="m0-0.03125h0.015625v0.03125h-0.015625v0.015625zm0 0h0.015625z"/>
  </symbol>
  <symbol id="m" overflow="visible">
   <path d="m0.03125-0.03125v0.015625h-0.015625v0.015625h0.015625-0.015625-0.015625v-0.015625l0.015625-0.015625h0.015625z"/>
  </symbol>
 </defs>
 <g>
  <path d="m285.97 487.55 26.105-259.51c-4.5-2.1367-8.2422-4.7148-10.996-7.5977-3.5195-3.6953-5.4883-7.9141-5.4883-12.461 0-7.9414 6.0117-14.887 15.727-19.703 4.2578-2.1094 9.2695-3.8281 14.801-5.0586v-16.668c0-1.2891 0.63281-2.4258 1.6055-3.0977 4.6016-3.4727 11.227-5.4219 18.078-5.4219 6.375 0 13.047 1.6875 18.555 5.4141 1.0547 0.71094 1.625 1.8945 1.6328 3.1094h0.019531v16.742c5.4141 1.2227 10.312 2.9219 14.496 4.9922 9.7148 4.8164 15.727 11.762 15.727 19.703 0 4.3477-1.8008 8.3984-5.0391 11.984-2.7891 3.0781-6.6719 5.8164-11.379 8.0547l25.527 253.72c8.3516 3.9219 14.102 11.07 20.168 18.621 0.71875 0.89453 1.4375 1.793 2.1758 2.6992 0.73828-0.89453 1.457-1.8008 2.1758-2.6992 9.3789-11.676 17.996-22.398 36.672-21.691 18.898-0.71875 27.504 10.277 36.781 22.121 0.63281 0.8125 1.2695 1.625 1.9219 2.4375 0.78516-0.96094 1.5508-1.9141 2.3164-2.8672 9.3789-11.676 17.996-22.398 36.672-21.691 18.898-0.71875 27.504 10.277 36.781 22.121 8.793 11.227 18.258 23.305 39.117 24.508 1.9961 0.11328 3.5273 1.8672 3.4141 3.9219-0.11328 2.0547-1.8203 3.6289-3.8164 3.5195-24.078-1.3828-34.598-14.812-44.363-27.281-8.1094-10.359-15.645-19.973-30.996-19.348h-0.28906c-15.176-0.61719-22.727 8.7734-30.941 19.004-1.0273 1.2773-2.0625 2.5664-3.125 3.8555 7.3828 8.2773 16.641 15.418 32.414 16.324 1.9961 0.11328 3.5273 1.8672 3.4141 3.9219-0.11328 2.0547-1.8203 3.6289-3.8164 3.5195-18.199-1.0469-28.645-8.9688-36.875-18.152-8.5117 9.1758-19.414 17.09-38.34 18.152-0.14844 0.007812-0.30859 0.019531-0.46484 0.007812-19.152-1.0547-30.102-9.1094-38.66-18.406-8.5508 9.2773-19.48 17.324-38.566 18.395-0.14844 0.007812-0.30859 0.019531-0.46484 0.007812-19.152-1.0547-30.102-9.1094-38.66-18.406-8.5508 9.2773-19.48 17.324-38.566 18.395-0.14844 0.007812-0.30859 0.019531-0.46484 0.007812-19.152-1.0547-30.102-9.1094-38.66-18.406-8.5508 9.2773-19.48 17.324-38.566 18.395-0.14844 0.007813-0.30859 0.019531-0.46484 0.007813-18.984-1.0469-29.914-8.9688-38.434-18.152-8.2305 9.1914-18.684 17.109-36.875 18.152-1.9961 0.11328-3.707-1.4648-3.8164-3.5195-0.11328-2.0547 1.418-3.8086 3.4141-3.9219 15.773-0.90625 25.031-8.0469 32.414-16.324-1.0625-1.2891-2.1016-2.5742-3.125-3.8555-8.2148-10.23-15.766-19.617-30.941-19.004h-0.28906c-15.352-0.625-22.887 8.9883-30.996 19.348-9.7617 12.469-20.281 25.891-44.363 27.281-1.9961 0.11328-3.707-1.4648-3.8164-3.5195-0.11328-2.0547 1.418-3.8086 3.4141-3.9219 20.859-1.1953 30.324-13.281 39.117-24.508 9.2773-11.844 17.891-22.84 36.781-22.121 18.676-0.71094 27.289 10.016 36.672 21.691 0.76562 0.95312 1.5312 1.9141 2.3164 2.8672 0.64453-0.8125 1.2891-1.6328 1.9219-2.4375 9.2773-11.844 17.891-22.84 36.781-22.121 18.676-0.71094 27.289 10.016 36.672 21.691 0.71875 0.89453 1.4375 1.793 2.1758 2.6992 0.73828-0.89453 1.457-1.8008 2.1758-2.6992 3.7227-4.6367 7.3281-9.1172 11.488-12.805zm111.85-8.2617-26.031-258.75c-0.63281-6.2891-3.4453-10.863-7.4375-13.953-4.8828-3.7695-11.574-5.4609-18.379-5.4219h-0.027343c-6.8047-0.039063-13.496 1.6523-18.379 5.4219-3.0352 2.3438-5.3867 5.5352-6.6172 9.6875l8.5586 0.44922c0.74609 0.039062 1.3242 0.69922 1.2891 1.4648-0.039062 0.77344-0.67188 1.3633-1.4297 1.3242l-9.043-0.47656c-0.085937 0.48438-0.14844 0.98828-0.19531 1.5039l-0.42187 4.2109c0.22266 0.77344 0.20703 1.625-0.10156 2.4375-0.054687 0.14063-0.11328 0.26953-0.1875 0.40234l-0.4375 4.3477 10.191 0.48438c0.78516 0.039062 1.3828 0.71094 1.3516 1.5117-0.039063 0.80078-0.69141 1.4297-1.4766 1.3906l-10.359-0.49609-1.2891 12.785 11.434 0.49609c0.8125 0.039062 1.4453 0.73828 1.4102 1.5664-0.027344 0.83203-0.71875 1.4844-1.5312 1.457l-11.621-0.50391-1.2773 12.664 12.676 0.50391c0.83984 0.027343 1.5039 0.75781 1.4766 1.625-0.027344 0.86719-0.73828 1.5391-1.5781 1.5117l-12.879-0.51172-1.2617 12.555 13.926 0.50391c0.87891 0.027344 1.5586 0.78516 1.5312 1.6797-0.027343 0.89453-0.76562 1.6055-1.6445 1.5664l-14.141-0.51172-1.25 12.441 15.168 0.51172c0.90625 0.027344 1.6133 0.8125 1.5859 1.7344-0.027343 0.93359-0.78516 1.6602-1.6875 1.6328l-15.41-0.52344-1.2422 12.32 16.418 0.52344c0.93359 0.027344 1.6719 0.83203 1.6523 1.793-0.027344 0.96094-0.80078 1.7188-1.7461 1.6992l-16.668-0.53125-1.2305 12.207 17.66 0.52344c0.96875 0.027343 1.7266 0.85937 1.707 1.8477-0.027344 1-0.83203 1.7812-1.8008 1.7539l-17.93-0.53125-1.2148 12.098 18.91 0.53125c1 0.027344 1.793 0.87891 1.7656 1.9023-0.027344 1.0273-0.84766 1.8398-1.8477 1.8203l-19.188-0.53125-1.2031 11.977 20.152 0.53125c1.0273 0.027344 1.8477 0.90625 1.8203 1.9609-0.027344 1.0547-0.87891 1.8945-1.9141 1.875l-20.449-0.54297-1.1953 11.863 21.402 0.53125c1.0625 0.027344 1.9023 0.93359 1.875 2.0234-0.027344 1.0938-0.90625 1.9492-1.9688 1.9336l-21.711-0.54297-1.1836 11.742 22.645 0.54297c1.0938 0.019531 1.9609 0.95312 1.9414 2.0703-0.019531 1.1211-0.92578 2.0156-2.0156 1.9961l-22.98-0.54297-1.168 11.629 23.895 0.54297c1.1211 0.019532 2.0156 0.98047 1.9961 2.1367s-0.95312 2.0703-2.0703 2.0547l-24.238-0.55078-1.1562 11.508 25.145 0.54297c1.1562 0.019532 2.0703 1.0078 2.0547 2.1914-0.019532 1.1836-0.98047 2.1289-2.1289 2.1094l-25.488-0.55078-1.1484 11.395 26.395 0.54297c1.1836 0.027344 2.1289 1.0352 2.1094 2.25-0.019531 1.2227-1.0078 2.1836-2.1914 2.1641l-26.75-0.55078-1.1367 11.285 27.637 0.55078c1.2148 0.019531 2.1836 1.0547 2.1641 2.3047s-1.0156 2.25-2.2383 2.2305l-28.02-0.55078-1.1211 11.164 28.887 0.55078c1.25 0.019531 2.2383 1.0742 2.2227 2.3633-0.019531 1.2891-1.0469 2.3047-2.2969 2.2852l-29.277-0.55859-1.0352 10.277c4.75-2.3984 10.34-3.7539 17.359-3.4805 7.9141-0.29688 14.02 1.457 19.145 4.4609l7.1016-59.293c0.375-3.1094 2.0078-5.3477 4.332-6.8594 2.2695-1.4648 5.1875-2.1289 8.082-2.1172 2.8945-0.007813 5.8164 0.65234 8.082 2.1172 2.3242 1.5039 3.957 3.7539 4.332 6.8594l7.1289 59.508c5.1992-3.1367 11.406-4.9844 19.496-4.6758 3.2852-0.12109 6.2539 0.10156 8.9688 0.63281zm-60.816 8.8555c3.8828 3.5664 7.2969 7.8125 10.828 12.199 0.71875 0.89453 1.4375 1.793 2.1758 2.6992 0.73828-0.89453 1.457-1.8008 2.1758-2.6992 3.4141-4.2578 6.7383-8.3828 10.473-11.883v-0.039063l-7.6328-63.711c-0.074219-0.63281-0.44922-1.1094-0.98047-1.457-1.0547-0.67969-2.5938-0.98828-4.2109-0.98047h-0.027344c-1.6133-0.007813-3.1562 0.29688-4.2109 0.98047-0.53125 0.34375-0.90625 0.83203-0.98047 1.457l-7.5781 63.254c-0.007812 0.054688-0.019531 0.11328-0.019531 0.16797zm-137.39 20.73c7.6523 8.2891 17.352 15.445 33.844 16.398 16.605-0.96094 26.32-8.2148 34-16.566-0.98828-1.2031-1.9492-2.4062-2.9102-3.6016-8.2148-10.23-15.766-19.617-30.941-19.004h-0.28906c-15.352-0.625-22.887 8.9883-30.996 19.348-0.88672 1.1367-1.793 2.2852-2.6992 3.4258zm80.453-3.7695c-0.96094 1.1953-1.9219 2.3984-2.9102 3.6016 7.6719 8.3633 17.387 15.605 34 16.566 16.605-0.96094 26.32-8.2148 34-16.566-0.98828-1.2031-1.9492-2.4062-2.9102-3.6016-8.2148-10.23-15.766-19.617-30.941-19.004h-0.28906c-15.176-0.61719-22.727 8.7734-30.941 19.004zm74.777 3.6016c7.6719 8.3633 17.387 15.605 34 16.566 16.605-0.96094 26.32-8.2148 34-16.566-0.98828-1.2031-1.9492-2.4062-2.9102-3.6016-8.2148-10.23-15.766-19.617-30.941-19.004h-0.28906c-15.176-0.61719-22.727 8.7734-30.941 19.004-0.96094 1.1953-1.9219 2.3984-2.9102 3.6016zm80.602-3.6016c-0.96094 1.1953-1.9219 2.3984-2.9102 3.6016 7.6719 8.3633 17.387 15.605 34 16.566 16.492-0.95312 26.188-8.1094 33.844-16.398-0.91406-1.1484-1.8125-2.2852-2.6992-3.4258-8.1094-10.359-15.645-19.973-30.996-19.348h-0.28906c-15.176-0.61719-22.727 8.7734-30.941 19.004zm-61.656-455.39c0.26953-1.25 1.4766-2.043 2.6992-1.7656 1.2227 0.28125 1.9883 1.5195 1.7188 2.7734l-8.6797 40.012c-0.26953 1.25-1.4766 2.043-2.6992 1.7656-1.2227-0.28125-1.9883-1.5195-1.7188-2.7734zm56.391 30.809c0.84766-0.94141 2.2773-1.0078 3.2031-0.14062 0.92578 0.86719 0.98047 2.3438 0.12891 3.293l-26.973 30.191c-0.84766 0.94141-2.2773 1.0078-3.2031 0.14062-0.92578-0.86719-0.98047-2.3438-0.12891-3.293zm33.852 55.684c1.1953-0.38281 2.4648 0.29687 2.8359 1.5312 0.375 1.2305-0.29688 2.5391-1.4922 2.9219l-38.043 12.273c-1.1953 0.38281-2.4648-0.29688-2.8359-1.5312-0.375-1.2305 0.29688-2.5391 1.4922-2.9219zm2.2305 65.633c1.2227 0.28125 1.9883 1.5195 1.7188 2.7734-0.26953 1.25-1.4766 2.043-2.6992 1.7656l-38.91-8.9219c-1.2227-0.28125-1.9883-1.5195-1.7188-2.7734 0.26953-1.25 1.4766-2.043 2.6992-1.7656zm-29.961 57.98c0.92578 0.86719 0.98047 2.3438 0.12891 3.293-0.84766 0.94141-2.2773 1.0078-3.2031 0.14062l-29.363-27.738c-0.92578-0.86719-0.98047-2.3438-0.12891-3.293 0.84766-0.94141 2.2773-1.0078 3.2031-0.14062zm-174.37 6.2891c-0.84766 0.94141-2.2773 1.0078-3.2031 0.14062-0.92578-0.86719-0.98047-2.3438-0.12891-3.293l26.973-30.191c0.84766-0.94141 2.2773-1.0078 3.2031-0.14062 0.92578 0.86719 0.98047 2.3438 0.12891 3.293zm-33.852-55.684c-1.1953 0.38281-2.4648-0.29688-2.8359-1.5312-0.375-1.2305 0.29688-2.5391 1.4922-2.9219l38.043-12.273c1.1953-0.38281 2.4648 0.29688 2.8359 1.5312 0.375 1.2305-0.29688 2.5391-1.4922 2.9219zm-2.2305-65.633c-1.2227-0.28125-1.9883-1.5195-1.7188-2.7734 0.26953-1.25 1.4766-2.043 2.6992-1.7656l38.91 8.9219c1.2227 0.28125 1.9883 1.5195 1.7188 2.7734-0.26953 1.25-1.4766 2.043-2.6992 1.7656zm29.961-57.98c-0.92578-0.86719-0.98047-2.3438-0.12891-3.293 0.84766-0.94141 2.2773-1.0078 3.2031-0.14063l29.363 27.738c0.92578 0.86719 0.98047 2.3438 0.12891 3.293-0.84766 0.94141-2.2773 1.0078-3.2031 0.14063zm54.152-34.812c-0.375-1.2305 0.29688-2.5391 1.4922-2.9219 1.1953-0.38281 2.4648 0.29688 2.8359 1.5312l11.938 39.117c0.375 1.2305-0.29688 2.5391-1.4922 2.9219-1.1953 0.38281-2.4648-0.29688-2.8359-1.5312zm103.57-4.5625c0.61719-1.1211 1.9961-1.5195 3.0898-0.89453s1.4844 2.0547 0.86719 3.1719l-11.594 21.176c-0.61719 1.1211-1.9961 1.5195-3.0898 0.89453s-1.4844-2.0547-0.86719-3.1719zm-21.68 39.594c0.61719-1.1211 1.9961-1.5195 3.0898-0.89453s1.4844 2.0547 0.86719 3.1719l-13.012 23.762c-0.61719 1.1211-1.9961 1.5195-3.0898 0.89453s-1.4844-2.0547-0.86719-3.1719zm73.855 11.957c1.0742-0.65234 2.4648-0.28906 3.0977 0.82031 0.63281 1.1094 0.28125 2.5391-0.79297 3.1914l-20.336 12.375c-1.0742 0.65234-2.4648 0.28906-3.0977-0.82031-0.63281-1.1094-0.28125-2.5391 0.79297-3.1914zm-38.035 23.148c1.0742-0.65234 2.4648-0.28906 3.0977 0.82031 0.63281 1.1094 0.28125 2.5391-0.79297 3.1914l-22.82 13.887c-1.0742 0.65234-2.4648 0.28906-3.0977-0.82031-0.63281-1.1094-0.28125-2.5391 0.79297-3.1914zm58.137 48.328c1.25-0.007812 2.2695 1.0273 2.2773 2.3047 0.007813 1.2891-1 2.332-2.2383 2.3438l-23.633 0.26172c-1.25 0.007813-2.2695-1.0273-2.2773-2.3047-0.007813-1.2891 1-2.332 2.2383-2.3438zm-44.191 0.49609c1.25-0.007813 2.2695 1.0273 2.2773 2.3047 0.007812 1.2891-1 2.332-2.2383 2.3438l-26.516 0.29688c-1.25 0.007813-2.2695-1.0273-2.2773-2.3047-0.007812-1.2891 1-2.332 2.2383-2.3438zm26.844 71.734c1.0938 0.625 1.4844 2.0547 0.86719 3.1719-0.61719 1.1211-1.9961 1.5195-3.0898 0.89453l-20.59-11.918c-1.0938-0.625-1.4844-2.0547-0.86719-3.1719 0.61719-1.1211 1.9961-1.5195 3.0898-0.89453zm-38.508-22.289c1.0938 0.625 1.4844 2.0547 0.86719 3.1719-0.61719 1.1211-1.9961 1.5195-3.0898 0.89453l-23.109-13.375c-1.0938-0.625-1.4844-2.0547-0.86719-3.1719 0.61719-1.1211 1.9961-1.5195 3.0898-0.89453zm-203.56 27.215c-1.0742 0.65234-2.4648 0.28906-3.0977-0.82031-0.63281-1.1094-0.28125-2.5391 0.79297-3.1914l20.336-12.375c1.0742-0.65234 2.4648-0.28906 3.0977 0.82031 0.63281 1.1094 0.28125 2.5391-0.79297 3.1914zm38.035-23.148c-1.0742 0.65234-2.4648 0.28906-3.0977-0.82031s-0.28125-2.5391 0.79297-3.1914l22.82-13.887c1.0742-0.65234 2.4648-0.28906 3.0977 0.82031 0.63281 1.1094 0.28125 2.5391-0.79297 3.1914zm-58.137-48.328c-1.25 0.007812-2.2695-1.0273-2.2773-2.3047-0.007813-1.2891 1-2.332 2.2383-2.3438l23.633-0.26172c1.25-0.007812 2.2695 1.0273 2.2773 2.3047 0.007813 1.2891-1 2.332-2.2383 2.3438zm44.191-0.49609c-1.25 0.007812-2.2695-1.0273-2.2773-2.3047-0.007812-1.2891 1-2.332 2.2383-2.3438l26.516-0.29688c1.25-0.007812 2.2695 1.0273 2.2773 2.3047 0.007812 1.2891-1 2.332-2.2383 2.3438zm-26.832-71.734c-1.0938-0.625-1.4844-2.0547-0.86719-3.1719 0.61719-1.1211 1.9961-1.5195 3.0898-0.89453l20.59 11.918c1.0938 0.625 1.4844 2.0547 0.86719 3.1719-0.61719 1.1211-1.9961 1.5195-3.0898 0.89453zm38.508 22.289c-1.0938-0.625-1.4844-2.0547-0.86719-3.1719 0.61719-1.1211 1.9961-1.5195 3.0898-0.89453l23.109 13.375c1.0938 0.625 1.4844 2.0547 0.86719 3.1719-0.61719 1.1211-1.9961 1.5195-3.0898 0.89453zm11.629-75.938c-0.63281-1.1094-0.28125-2.5391 0.79297-3.1914s2.4648-0.28906 3.0977 0.82031l12.039 20.906c0.63281 1.1094 0.28125 2.5391-0.79297 3.1914s-2.4648 0.28906-3.0977-0.82031zm22.512 39.105c-0.63281-1.1094-0.28125-2.5391 0.79297-3.1914s2.4648-0.28906 3.0977 0.82031l13.504 23.465c0.63281 1.1094 0.28125 2.5391-0.79297 3.1914-1.0742 0.65234-2.4648 0.28906-3.0977-0.82031zm47.004-59.781c-0.007812-1.2891 1-2.332 2.2383-2.3438 1.25-0.007812 2.2695 1.0273 2.2773 2.3047l0.26172 24.293c0.007812 1.2891-1 2.332-2.2383 2.3438-1.25 0.007813-2.2695-1.0273-2.2773-2.3047zm0.47656 45.434c-0.007813-1.2891 1-2.332 2.2383-2.3438 1.25-0.007813 2.2695 1.0273 2.2773 2.3047l0.28906 27.262c0.007813 1.2891-1 2.332-2.2383 2.3438-1.25 0.007812-2.2695-1.0273-2.2773-2.3047zm-1.4648 70.148v-28.289c0-2.0625 1.625-3.7344 3.6289-3.7344 2.0078 0 3.6289 1.6719 3.6289 3.7344v28.316c7.2422 0.57812 14.551 2.8203 20.738 7 1.6719 1.1289 2.1289 3.4336 1.0352 5.1523s-3.3398 2.1914-5.0039 1.0625c-6.0117-4.0586-13.441-5.9062-20.637-5.9062-7.6641 0-14.914 2.082-19.75 5.7852-1.6055 1.2305-3.8828 0.89453-5.0781-0.75781-1.1953-1.6523-0.86719-3.9844 0.73828-5.2188 5.3125-4.0781 12.758-6.5898 20.691-7.1602zm-8.9336 36.754c4.0039-0.53125 8.2031-0.8125 12.523-0.8125 4.4336 0 8.7344 0.29687 12.832 0.85937v-13.336c-3.9102-2.1562-8.4844-3.1445-12.938-3.1445-4.6758 0-9.1289 1.0938-12.422 3.0508v13.395zm-20.516 38.191 0.039063-0.35547c0.85938-8.5781 4.7617-14.859 10.305-19.145 6.2148-4.7969 14.465-6.9531 22.734-6.9062 8.2617-0.039063 16.52 2.1094 22.734 6.9062 5.5547 4.2852 9.4453 10.566 10.305 19.145l0.027344 0.30859c2.8359-1.5664 5.1602-3.3242 6.8711-5.207 1.9805-2.1836 3.0781-4.5273 3.0781-6.9062 0-4.8242-4.4414-9.4375-11.621-12.992-7.9805-3.9492-19.086-6.3945-31.434-6.3945-12.355 0-23.465 2.4453-31.434 6.3945-7.1758 3.5547-11.621 8.168-11.621 12.992 0 2.5 1.2148 4.957 3.3867 7.2422 1.6992 1.7812 3.9375 3.4453 6.625 4.918zm26.066 8.7461c0.074219-1.2891 1.1562-2.2578 2.3984-2.1758 1.25 0.085938 2.1914 1.1836 2.1172 2.4727l-1.8477 29.062 20.328 0.35547c1.25 0.019531 2.2383 1.0742 2.2227 2.3633-0.019531 1.2891-1.0469 2.3047-2.2969 2.2852l-22.578-0.39062h-0.24219c-1.25-0.085938-2.1914-1.1836-2.1172-2.4727l2.0078-31.5zm12.188-0.94141h8.875c1.25 0 2.2695 1.0469 2.2695 2.332v0.11328l0.66406 20.422c0.039063 1.2891-0.94141 2.3633-2.1914 2.3984h-0.074219v0.007813h-10.305c-1.25 0-2.2695-1.0469-2.2695-2.332 0-0.09375 0.007813-0.1875 0.019532-0.28125l0.75781-20.41c0.046875-1.2617 1.0469-2.2383 2.2578-2.2383v-0.007812zm6.6914 4.668h-4.5078l-0.58984 15.941h5.6172l-0.51172-15.941zm-18.293 50.277c0.074219-1.2891 1.1562-2.2578 2.3984-2.1758 1.25 0.085938 2.1914 1.1836 2.1172 2.4727l-2.2031 34.664 24.371 0.42188c1.25 0.019532 2.2383 1.0742 2.2227 2.3633-0.019531 1.2891-1.0469 2.3047-2.2969 2.2852l-26.609-0.45703h-0.24219c-1.25-0.085937-2.1914-1.1836-2.1172-2.4727l2.3633-37.09zm13.953-0.72656h10.453c1.25 0 2.2695 1.0469 2.2695 2.332v0.11328l0.78516 24.078c0.039062 1.2891-0.94141 2.3633-2.1914 2.3984h-0.074219v0.007813h-12.133c-1.25 0-2.2695-1.0469-2.2695-2.332 0-0.09375 0.007812-0.1875 0.019531-0.28125l0.89453-24.07c0.046875-1.2617 1.0469-2.2383 2.2578-2.2383v-0.007813zm8.2617 4.668h-6.0859l-0.72656 19.602h7.4492l-0.63281-19.602z"/>
  <use x="70" y="560.140625" xlink:href="#w"/>
  <use x="70.035156" y="560.140625" xlink:href="#e"/>
  <use x="70.058594" y="560.140625" xlink:href="#b"/>
  <use x="70.089844" y="560.140625" xlink:href="#a"/>
  <use x="70.121094" y="560.140625" xlink:href="#d"/>
  <use x="70.144531" y="560.140625" xlink:href="#b"/>
  <use x="70.175781" y="560.140625" xlink:href="#l"/>
  <use x="70.222656" y="560.140625" xlink:href="#k"/>
  <use x="70.257812" y="560.140625" xlink:href="#j"/>
  <use x="70.304688" y="560.140625" xlink:href="#i"/>
  <use x="70.34375" y="560.140625" xlink:href="#v"/>
  <use x="70.359375" y="560.140625" xlink:href="#b"/>
  <use x="70.390625" y="560.140625" xlink:href="#f"/>
  <use x="70.425781" y="560.140625" xlink:href="#a"/>
  <use x="70.472656" y="560.140625" xlink:href="#h"/>
  <use x="70.507812" y="560.140625" xlink:href="#a"/>
  <use x="70.539062" y="560.140625" xlink:href="#f"/>
  <use x="70.570312" y="560.140625" xlink:href="#a"/>
  <use x="70.601562" y="560.140625" xlink:href="#g"/>
  <use x="70.628906" y="560.140625" xlink:href="#c"/>
  <use x="70.664062" y="560.140625" xlink:href="#u"/>
  <use x="70.691406" y="560.140625" xlink:href="#g"/>
  <use x="70.722656" y="560.140625" xlink:href="#t"/>
  <use x="70.75" y="560.140625" xlink:href="#a"/>
  <use x="70" y="560.1875" xlink:href="#s"/>
  <use x="70.019531" y="560.1875" xlink:href="#e"/>
  <use x="70.042969" y="560.1875" xlink:href="#c"/>
  <use x="70.074219" y="560.1875" xlink:href="#r"/>
  <use x="70.140625" y="560.1875" xlink:href="#d"/>
  <use x="70.164062" y="560.1875" xlink:href="#q"/>
  <use x="70.195312" y="560.1875" xlink:href="#b"/>
  <use x="70.242188" y="560.1875" xlink:href="#p"/>
  <use x="70.28125" y="560.1875" xlink:href="#c"/>
  <use x="70.316406" y="560.1875" xlink:href="#o"/>
  <use x="70.347656" y="560.1875" xlink:href="#f"/>
  <use x="70.398438" y="560.1875" xlink:href="#h"/>
  <use x="70.433594" y="560.1875" xlink:href="#e"/>
  <use x="70.453125" y="560.1875" xlink:href="#c"/>
  <use x="70.488281" y="560.1875" xlink:href="#n"/>
  <use x="70.503906" y="560.1875" xlink:href="#b"/>
  <use x="70.535156" y="560.1875" xlink:href="#m"/>
  <use x="70.5625" y="560.1875" xlink:href="#d"/>
 </g>
</svg>
