<?xml version="1.0" encoding="UTF-8"?>
<svg width="1200pt" height="1200pt" version="1.1" viewBox="0 0 1200 1200" xmlns="http://www.w3.org/2000/svg">
 <path transform="scale(15)" d="m19.888 5.9255c0.13594 1.2359 0.43672 2.4495 0.62396 3.6719 0.12057 0.55677 0.26354 1.1086 0.34531 1.6714 0.063281 0.40417 0.18412 0.79062 0.32969 1.1625 0.11068 0.38412 0.28906 0.75338 0.575 1.0326 0.16979 0.17031 0.31849 0.36198 0.47318 0.54974 0.13542-0.2 0.22708-0.41615 0.29479-0.64375-0.34323-0.51693-0.75391-1.0193-0.89818-1.6297-0.22161-0.64062-0.32838-1.3161-0.4987-1.9706-0.29193-1.3549-0.63776-2.6862-0.91354-4.0424zm7.0896 2.7854c-0.17578 0.10755-0.34479 0.22422-0.48281 0.37578-0.21172 0.22865-0.50338 0.35208-0.72995 0.55547-0.90573 0.95807-1.8312 1.9536-2.3471 3.1797-0.11042 0.2276-0.26198 0.42865-0.35234 0.6612-0.13438 0.34375-0.3974 0.62865-0.43802 1.0013-0.12214 0.50625-0.31797 0.9888-0.46979 1.4878-0.3763 1.5591-0.59479 3.1685-0.64349 4.7781-0.10938 3.0992-0.098958 6.2286 0.50078 9.2773 0.11667 0.59297 0.29479 1.1747 0.41771 1.7641 0.021093 0.19141 0.2349 0.25052 0.37604 0.34453 0.29635 0.11172 0.64896 0.062239 0.89505 0.2888 0.21016-0.032292 0.42552-0.21198 0.49844-0.41693 0.066927-0.45651-0.2263-0.87578-0.19818-1.326 0.085416-0.29766 0.37708-0.46354 0.64609-0.58203 0.71198-0.14531 1.4534-0.070573 2.1716-0.17708 0.20885-0.00599 0.28047-0.22734 0.41953-0.33594 0.18281-0.1349 0.36172-0.27604 0.50469-0.46328 0.19792-0.23724 0.58073-0.27917 0.7401-0.55312-0.089583-0.27786 0.040885-0.54271 0.2599-0.71641 0.31771-0.079688 0.63438-0.21797 0.86745-0.46771-0.10208-0.27031-0.44349-0.32969-0.52682-0.6112-0.01224-0.1625 0.074218-0.31641 0.21562-0.39245 0.34557-0.18958 0.5974-0.49323 0.85417-0.77422-0.1099-0.11276-0.2474-0.20052-0.36979-0.30573-0.14609-0.11641-0.13073-0.38906 0.049479-0.47136 0.22162-0.14088 0.44427-0.26588 0.65104-0.43177-0.11458-0.30547-0.48958-0.54844-0.36901-0.90104 0.093229-0.49766 0.23906-0.99271 0.55859-1.3964 0.10156-0.17109 0.28307-0.36484 0.21849-0.57266-0.25625-0.18672-0.55651 0.035416-0.82943 0.0625-0.25208-0.30807-0.058854-0.73802-0.013541-1.0883 0.13776-0.039843 0.28281-0.067187 0.40417-0.14818 0.062761-0.1651 0.049219-0.34375-0.021875-0.50521-0.094791-0.21536 0.059375-0.4263 0.19479-0.58385 0.29453-0.34609 0.49271-0.75339 0.66458-1.1622 0.12057-0.3099 0.3224-0.58359 0.38906-0.9125 0.17734-0.68385 0.45833-1.3365 0.58568-2.0328 0.20234-0.69896 0.30208-1.413 0.46458-2.1219 0.16927-1.2229 0.47891-2.4958 0.070313-3.7047-0.13854-0.27422-0.29948-0.54323-0.49792-0.78984-0.13229-0.10781-0.28229-0.18802-0.43359-0.28464-0.14688 0.3513 0.062761 0.70182 0.021094 1.0581-0.096614 0.2362-0.23464 0.44609-0.31745 0.69115-0.10391 0.011198-0.2026 0.002083-0.29141 0.038281-0.04401 0.15391 0.068229 0.34167-0.038281 0.49036-0.14401 0.17109-0.31927 0.31849-0.48464 0.46823 0.013282 0.39141-0.083854 0.84036-0.44062 1.0536 0.054688 0.24766-0.16823 0.4151-0.19974 0.64635-0.031511 0.1888-0.28177 0.25338-0.28958 0.45365-0.01901 0.22396-0.21302 0.33984-0.35599 0.4849 0.033594 0.18385 0.044531 0.37266 0.061719 0.55781-0.098959 0.076302-0.19792 0.15234-0.29297 0.23464 0.029948 0.092709 0.055989 0.17891 0.085937 0.27162-0.092708 0.072396-0.19167 0.1487-0.27292 0.23984-0.11276 0.19505-0.12057 0.4375-0.10729 0.65911-0.1 0.017188-0.21016 0.032292-0.30521 0.072136-0.032552 0.0875-0.002865 0.18021 7.81e-4 0.27135-0.076302 0.028646-0.1526 0.057291-0.23516 0.089843 0.11588 0.23646 0.19922 0.56068-0.044792 0.74922 0.064844 0.20781 0.23307 0.48932 0.041667 0.68047-0.26693 0.32109-0.29245 0.7612-0.46068 1.1339-0.066667 0.2013-0.46042 0.18203-0.43255-0.055729 0.088282-0.56276 0.39792-1.0964 0.3112-1.6818 0.090365-0.062239 0.17656-0.13099 0.26042-0.18984 0.021875-0.44635 0.073698-0.88542 0.069531-1.3331 0.007813-0.24271 0.091927-0.47135 0.10599-0.71771 0.080208-0.064844 0.17031-0.12734 0.26042-0.18984-0.021094-0.14896-0.039584-0.30781 0.065625-0.43021 0.12786-0.16979 0.036718-0.37891 0.022135-0.57396 0.042708-0.17005 0.24792-0.22474 0.37682-0.33594-0.052344-0.13021-0.098438-0.26406-0.15443-0.40052 0.14531-0.1125 0.29427-0.21849 0.43568-0.33698-0.17838-0.41172-0.14479-1.0096 0.30938-1.2302-0.023698-0.096354-0.053385-0.1888-0.077083-0.28516l0.24818-0.35234c-0.14219-0.32292 0.009635-0.69401 0.28646-0.88516 0.090365-0.275-5.21e-4 -0.56901 0.05-0.85417 0.31172-0.20338 0.66354-0.35417 0.94896-0.60156-0.097396-0.16276-0.17708-0.35286-0.31823-0.48958-0.5388-0.24714-1.1393-0.057812-1.6711 0.090104-0.34661 0.045834-0.60573 0.29427-0.93359 0.37136-0.29896 0.068489-0.55703 0.24818-0.81354 0.40156-0.10573 0.063281-0.21302 0.12396-0.31875 0.18828zm19.56-7.9992c-0.083333 0.54271 0.4276 0.9 0.48568 1.4091 0.052083 0.30026 0.31432 0.52578 0.35026 0.82734 0.025781 0.25651 0.20833 0.46172 0.25286 0.70703 0.064584 0.29271 0.21172 0.55312 0.26641 0.84349 0.29531 0.83464 0.42396 1.718 0.60052 2.5812 0.17135 0.016406 0.3388 0.026823 0.51016 0.043229 0.034114-0.15625 0.015364-0.3151-0.028125-0.45912-0.19375-1.006-0.49375-1.9906-0.85625-2.938-0.022136-0.33516-0.29818-0.56953-0.34896-0.89609-0.059375-0.44036-0.43672-0.75859-0.53125-1.1865-0.077084-0.37031-0.30677-0.68333-0.50391-0.9987-0.070052 0.025-0.13385 0.046093-0.19766 0.067187zm-18.329 16.086c-0.28412 0.22109-0.50755 0.68594-0.17891 0.96536 0.11146-0.1263 0.22292-0.25234 0.27318-0.4099 0.084115-0.1862-0.060677-0.37162-0.09427-0.55547zm18.285-8.8091c-0.088542 0.057552-0.1724 0.12552-0.2487 0.20599-0.061458 0.1388 0.089583 0.27786 0.20833 0.33412 0.3737 0.18438 0.75495 0.3388 1.1174 0.54688-0.040364 0.2026-0.084375 0.39896-0.078385 0.60781 0.059635 0.2276 0.17318 0.43177 0.28672 0.63568 0.20338 0.35417 0.65495 0.3987 0.92448 0.67917 0.52448 0.5362 0.23073 1.4086 0.73646 1.956 0.27708 0.33568 0.50182 0.7112 0.74766 1.0654-0.14922 0.2763-0.31224 0.5862-0.23906 0.90781 0.10338 0.28646 0.39088 0.45469 0.53802 0.71484 0.039843 0.1375-0.007813 0.28516-0.03698 0.42135-0.060937-0.15886-0.088281-0.34662-0.19062-0.48932-0.1375-0.13021-0.31979-0.20807-0.45469-0.34844-0.12734-0.17031-0.19844-0.37422-0.33438-0.53073-0.26484-0.30052-0.72109-0.325-0.95833-0.65052-0.28854-0.35443-0.40912-0.86849-0.22214-1.2948 0.13307-0.275-0.10938-0.53802-0.27161-0.73828-0.2888-0.14167-0.67526-0.10599-0.8849-0.37135-0.2474-0.24297 0.22214-0.56615-0.03125-0.80547-0.2099-0.22292-0.23438-0.54818-0.38542-0.81484-0.13724-0.21536 0.025781-0.48281-0.10521-0.70182-0.14349-0.25417-0.28672-0.59323-0.61953-0.6237-0.32005-0.12292-0.56432 0.15052-0.75104 0.36406-0.53724 0.50833-0.77839 1.256-0.83828 1.9799-0.1099 0.75417-0.10104 1.5219-0.008073 2.2737 0.097135 1.2422 0.55182 2.4146 1.0081 3.5609 0.10338 0.32917 0.31068 0.60469 0.45521 0.91745 0.13229 0.27786 0.23307 0.57448 0.37786 0.84479 0.14089 0.26406 0.42708 0.41589 0.55807 0.67734 0.047136 0.19271-0.10052 0.35755-0.16953 0.5263-0.15807 0.375-0.32005 0.7862-0.24948 1.2029 0.027083 0.3151 0.27057 0.59453 0.18385 0.91823-0.19635 0.040885-0.40417 0.063281-0.57188 0.18047-0.092708 0.11484 0.002084 0.24505 0.053386 0.35911 0.23438 0.46302 0.75078 0.67266 1.0503 1.0883-0.07526 0.0875-0.15417 0.16849-0.22917 0.25599 0.12839 0.35651 0.50833 0.49479 0.78698 0.71901-0.067709 0.1-0.13542 0.2-0.19688 0.29609 0.37604 0.38698 0.87344 0.60781 1.263 0.9612 0.11589 0.36406 0.26901 0.74844 0.16719 1.132 0.48854 0.27708 1.075 0.37682 1.476 0.79141 0.069791 0.14505 0.072135 0.34792 0.24453 0.42318 0.41979 0.23333 0.90885 0.34036 1.2797 0.66224 0.52448-0.20286 1.1146-0.18229 1.6372 0.023698 1.0365 0.21276 1.7245 1.0932 2.6357 1.5508 0.33385 0.003907 0.71562-0.096614 0.92995-0.3776 0.32057-0.34479 0.5026-0.79349 0.64974-1.2297 0.22734-0.75625 0.36484-1.5354 0.50859-2.3182 0.18932-1.2604 0.1388-2.5388 0.063021-3.8021-0.23854-2.857-0.75365-5.6932-1.649-8.4122-0.10938-0.41042-0.34401-0.78854-0.39974-1.2227l-1.4862-2.4849c-0.1888-0.11667-0.32969-0.29557-0.46719-0.46849-0.82422-0.90912-1.825-1.6872-2.9773-2.1367-0.3474-0.14062-0.69635-0.2974-1.0815-0.33047-0.24505-0.040364-0.49896 0.017969-0.74297-0.005989-0.56536-0.035677-1.1331-0.10417-1.6997-0.028646-0.43906 0.096875-0.92396 0.15365-1.3083 0.40208zm-15.16 11.036c-0.092969 0.2-0.35703 0.38359-0.27734 0.61615 0.37344 0.39714 0.81198 0.74662 1.0964 1.2224 0.13359 0.20911 0.36484 0.32578 0.47943 0.54609 0.34557 0.59219 0.73125 1.1518 1.0232 1.7674 0.062239 0.30286 0.20312 0.56693 0.34401 0.83099 0.24896 0.78594 0.49818 1.5716 0.73698 2.3549 0.078646 0.17396 0.16953 0.34036 0.20938 0.52057 0.095573 0.48672 0.49531 0.84245 0.60339 1.3216 0.20547 0.64193 0.6862 1.1617 0.92292 1.7849 0.072136 0.30521 0.24557 0.56693 0.41536 0.8224-0.0125 0.007031-0.033854 0.028386-0.042448 0.042448-0.13984-0.12031-0.19974-0.34792-0.40729-0.36823-0.009114 0.18385 0.014584 0.36536 0.021615 0.54792-0.16745-0.052865-0.3276-0.008073-0.45912 0.11328 0.12344 0.29167 0.5375 0.23099 0.66094 0.5224 0.25208 0.43568 0.52292 0.8599 0.76224 1.3031-0.23932 0.25364-0.30495 0.64115-0.12135 0.94792 0.16719 0.26536 0.14297 0.59427 0.12266 0.88698-0.21719-0.23542-0.17682-0.56562-0.33646-0.81849l-0.28177 0.16849c0.070573 0.45912 0.1026 0.92448 0.11797 1.3909-0.076041-0.05599-0.14609-0.11641-0.20365-0.18412-0.11615-0.15156-0.060677-0.37161-0.17682-0.52318-0.11745-0.082812-0.26276-0.013021-0.36536 0.057032 0.11693 0.50807 0.21484 1.0271 0.31927 1.5427 0.078646 0.13151 0.21849 0.20911 0.32838 0.32188 0.04974 0.1401-0.082812 0.24505-0.15677 0.3487-0.47109 0.51953-0.70078 1.201-1.0307 1.8146-0.13281 0.23255-0.32344 0.43984-0.41875 0.69245-0.15443 0.4237-0.3763 0.82005-0.46719 1.2651-0.11094 0.52526-0.25547 1.0365-0.3862 1.5565-0.040365 0.2026-0.23177 0.30859-0.38333 0.42474 0.52943 0.6862 0.81328 1.5445 1.4966 2.1047 0.43698 0.54583 0.84141 1.137 1.4148 1.5417 0.1737 0.091927 0.3625 0.12318 0.54635 0.17474 0.33646 0.078906 0.65495 0.22838 1.0078 0.22161 0.49662-0.009895 0.99922 0.022917 1.4984-0.03802 0.46406-0.090886 0.91588-0.25886 1.374-0.38828 0.30755-0.083072 0.57083-0.28177 0.84974-0.44062 0.34531-0.21823 0.70859-0.40651 1.0438-0.64193 0.84505-0.63281 1.1982-1.6768 1.7271-2.5539-0.077083-0.28516-0.23073-0.54193-0.33021-0.82214-0.082031-0.35026-0.23177-0.68568-0.38385-1.0112-0.10208-0.35547-0.14662-0.72812-0.20365-1.0935-0.085938-0.35651-0.23281-0.70208-0.42005-1.0151-0.26328-0.41172-0.40391-0.88854-0.63594-1.3193-0.094791-0.17266-0.14818-0.36172-0.18542-0.55182-0.19505-0.070312-0.48516-0.10078-0.48854-0.36224 0.13958-0.53386 0.25911-1.0727 0.3388-1.6216 0.01875-0.096354-0.039844-0.18021-0.072135-0.26276-0.37656 0.080729-0.32604 0.57734-0.65026 0.74583 0.011979-0.57656 0.17682-1.168 0.002604-1.7435l-0.25651 0.15339c-0.069271 0.25391-0.086979 0.53646-0.23984 0.7638-0.029687-0.22005-0.063021-0.44662 0.00599-0.65781 0.096614-0.19375 0.21823-0.40234 0.20729-0.63385 0.030469-0.24766-0.25833-0.43177-0.17917-0.68307 0.052864-0.2526 0.085677-0.51016 0.17865-0.7526 0.14297-0.1875 0.29557-0.3724 0.49114-0.51458 0.21901-0.1737 0.36823-0.40729 0.55234-0.61094-0.025-0.027604-0.08125-0.078906-0.10625-0.10651-0.24531 0.087239-0.45938 0.24062-0.66354 0.39688 0.072917-0.2901 0.17969-0.56641 0.31016-0.83125 0.54974-1.3826 1.1771-2.7349 1.6156-4.1615 0.46536-1.8505 1.212-3.6141 2.0039-5.3453 0.11823-0.47005 0.23906-0.95026 0.45859-1.3789-0.13854-0.14662-0.27969-0.28307-0.41458-0.42344-0.81641 1.4484-1.4214 3.0086-2.0414 4.5435-0.091667 0.25885-0.13958 0.53385-0.2513 0.7875-0.27344 0.57995-0.35573 1.224-0.60547 1.8151-0.13333 0.4875-0.38411 0.9349-0.5612 1.4062-0.40286 0.90365-0.81562 1.8049-1.2146 2.7148-0.048958 0.088802-0.11146 0.16875-0.17422 0.2487-0.026041-0.17135 0.00599-0.61536-0.26562-0.48698-0.23984 0.67891-0.19714 1.418-0.40703 2.1044-0.021354 0.021093-0.05 0.072396-0.061458 0.096354-0.064584-0.37786-0.028907-0.77292-0.14219-1.1471-0.076041-0.22656-0.098177-0.47656-0.23177-0.68568-0.12109-0.17396-0.073177-0.40651-0.17812-0.58177-0.22161 0.098438-0.46172 0.12318-0.67161-0.014583-0.06875 0.041146-0.14401 0.086198-0.20912 0.13333 0.0375 0.10521 0.064844 0.20781 0.10208 0.31276-0.10911 0.15859-0.24818 0.3099-0.28594 0.50234-0.084375 0.35625-0.15859 0.7151-0.16042 1.0818-0.010156 0.16771 0.019532 0.34531-0.073177 0.5026-0.16849-0.28177-0.16172-0.62552-0.24375-0.93333-0.079687-0.1901-0.20703-0.36042-0.25182-0.56328-0.026041-0.12891-0.045833-0.26146-0.11328-0.37422-0.43802-0.73229-0.87604-1.4646-1.3076-2.2005-0.11354-0.20417-0.23333-0.40443-0.29922-0.62838-0.12422-0.56302-0.62266-0.97031-0.71198-1.5456-0.06224-0.26016-0.24453-0.46562-0.29662-0.72344-0.057031-0.32266-0.27682-0.59062-0.31771-0.91484-0.16588-0.37682-0.22891-0.78073-0.41979-1.1424-0.045573-0.43151-0.34297-0.77214-0.52865-1.1539-0.32448-0.57083-0.6737-1.1266-1.0445-1.6612-0.3099-0.20547-0.44818-0.56484-0.74557-0.77786-0.26979-0.23802-0.49062-0.56484-0.83073-0.69297zm17.409-6.299c-0.032813 0.2151-0.10807 0.43021-0.084636 0.65391 0.096094 0.23151 0.24583 0.48177 0.49818 0.57734 0.053907-0.1513 0.12422-0.30365 0.10833-0.47266-0.18229-0.24792-0.38958-0.48073-0.52162-0.75859zm-24.111 17.912c-0.055989 0.034375-0.10911 0.073437-0.16536 0.10703 0.035677 0.42917 0.26901 0.83333 0.20078 1.2734-0.021875 0.40391-0.4112 0.61979-0.69531 0.84088-0.12057 0.3099-0.15729 0.64635-0.22786 0.96901-0.17266 0.095052-0.34922 0.18333-0.51198 0.28073 0.14714 0.34531 0.52578 0.46719 0.76432 0.72396 0.1099 0.11276 0.17214 0.28802 0.34349 0.30443 0.24245 0.050521 0.48776 0.090625 0.6888 0.24245-0.02526 0.18516-0.17083 0.425 0.007813 0.58151 0.3099 0.16302 0.67135 0.1849 1.0078 0.26406-0.03151 0.10365-0.06276 0.20755-0.10052 0.3151 0.3526 0.16302 0.74141 0.20234 1.1279 0.20912 0.43906 0.009114 0.88151 0.11016 1.3208 0.034375 0.23021-0.027084 0.45912 0.014322 0.68542 0.023437 0.42135 0.036979 0.83802-0.033854 1.2435-0.12318 0.39557-0.17708 0.83333-0.31146 1.1503-0.62005 0.27943-0.41354 0.37891-0.9151 0.45338-1.4013-0.097135-0.20521-0.36979-0.26328-0.47344-0.46458-0.073177-0.49167-0.40391-0.88854-0.65729-1.2979-0.26588-0.35938-0.7638-0.1974-1.1013-0.42057-0.47865-0.27448-0.92969-0.61667-1.4484-0.81641-0.2612-0.081771-0.31328-0.38203-0.51198-0.54349-0.30364-0.25182-0.62083-0.5125-0.98724-0.68438-0.64401 0.003125-1.2958-0.007031-1.9339 0.11979-0.065625 0.018229-0.12448 0.047916-0.18021 0.082291zm6.6021 2.0594c0.22083 0.36927 0.43906 0.74844 0.67266 1.1104 0.15625-0.009114 0.32396-0.083333 0.47786 0.003126 0.34505 0.19323 0.72865 0.3375 1.1174 0.41927 0.095052 0.045052 0.16979 0.12786 0.2737 0.15912 0.35521 0.067969 0.6875 0.22604 1.0503 0.26406 0.28255 0.10286 0.63516 0.13854 0.88177-0.059895-0.008594-0.071355-0.007292-0.1401-0.01224-0.20521-0.5276-0.22838-1.0625-0.42682-1.5875-0.6651-0.10365-0.03151-0.092448-0.1401-0.11484-0.22031 0.10495 0.004947 0.21641 0.007031 0.31146 0.051823 0.52005 0.21588 1.0276 0.43932 1.55 0.64505 0.21875 0.08151 0.24297-0.2474 0.19948-0.39115-0.23229-0.26042-0.47839-0.52969-0.78073-0.72266-0.3-0.075521-0.58646-0.18464-0.86745-0.3138-0.16745-0.095312-0.39271-0.003125-0.5526-0.12838-0.15-0.12292-0.34141-0.059375-0.52005-0.088281-0.35755-0.058073-0.73281-0.003906-1.0716-0.15781-0.1987-0.11901-0.37031 0.077084-0.52682 0.17057-0.14141 0.11875-0.32917 0.10339-0.50052 0.12943zm-8.3758 5.3831c-0.05651 0.030208-0.095833 0.082812-0.085937 0.16172 0.017187 0.27031-0.21823 0.44505-0.30234 0.6737-0.004167 0.29141-0.039583 0.60156-0.24141 0.83255 0.18698 0.35547 0.17891 0.76823 0.093489 1.1508 0.23021-0.11224 0.43177-0.25833 0.66589-0.36432 0.21146-0.10104 0.45547-0.076823 0.68047-0.12656 0.086458-0.06875 0.16146-0.15625 0.25052-0.23464-0.032291-0.125-0.052083-0.25781-0.074479-0.38021 0.073959-0.10365 0.17526-0.18984 0.21562-0.30729-0.028646-0.16146-0.14714-0.30286-0.090625-0.46406 0.027604-0.1526 0.11172-0.29635 0.10078-0.44271-0.062239-0.13255 0.45234-1.2484 0.66745-1.7701 0.2151-0.52135 0.13073-0.44844-0.2974-0.60651-0.25729-0.10443-0.047657-0.82865-0.21562-0.67734-0.16797 0.1513-0.71276 1.3109-0.80755 1.4792-0.10391 0.18411-0.19662 0.4776-0.26484 0.68437-0.068229 0.20677-0.12448 0.35156-0.18203 0.35833-0.038802 0.003906-0.078125 0.014583-0.11198 0.033073zm13.926-7.0711c0.0375-0.022396 0.1099-0.057552 0.14766-0.080208 0.079687 0.23281 0.34714 0.43828 0.28802 0.69453-0.23255-0.13281-0.33958-0.38333-0.43568-0.61484zm-10.102 6.2117c0.18125 0.10417 0.3849 0.16068 0.5612 0.28464 0.1612 0.18412 0.27214 0.39818 0.43932 0.57839 0.47969 0.50338 1.0857 0.86328 1.6755 1.2245 0.26484 0.17292 0.5724 0.26094 0.84609 0.42031 0.2763 0.14922 0.50234 0.37083 0.76953 0.53385 0.2599 0.15052 0.55391 0.22969 0.80495 0.39401 0.30234 0.19297 0.59115 0.41979 0.91094 0.58542 0.44609 0.23464 0.83854 0.57786 1.3047 0.77474 0.12578-0.50026 0.26536-0.99141 0.35104-1.5016 0.16823-0.4151 0.35625-0.825 0.52083-1.2464 0.30833-0.46484 0.61172-0.95208 0.7875-1.4823-0.20964-0.43568-0.51302-0.8151-0.88906-1.1169l-0.24036 0.066927c-0.1237-0.16406-0.25104-0.33438-0.41094-0.45964-0.3224-0.24062-0.32396-0.78333-0.76536-0.86797-0.022135-0.33516-0.13906-0.67318-0.38906-0.90599-0.1599-0.082812-0.34245-0.11797-0.52266-0.16328-0.03125 0.061198-0.048958 0.13125-0.05026 0.2-0.009375 0.52396-0.15781 1.0292-0.36354 1.5091-0.21849 0.52995-0.79766 0.74062-1.2846 0.9638-0.33932 0.18594-0.71823 0.19167-1.0898 0.25234-0.42031 0.064323-0.84167-0.057552-1.2695-0.005989-0.56667 0.07552-1.1331-0.10417-1.6971-0.038803zm-3.7492 3.8547c-0.16589 0.099219-0.31901 0.22682-0.46406 0.33932 0.10599 0.19141 0.27969 0.36823 0.28438 0.60339 0.01823 0.32891 0.31068 0.56198 0.35156 0.88594 0.045833 0.26146 0.18438 0.49297 0.31927 0.71849 0.29453-0.21797 0.66328-0.22656 1.0036-0.3112-0.082032-0.30781-0.16432-0.61562-0.31641-0.89844-0.053385-0.35911-0.26927-0.66328-0.3099-1.0297-0.049739-0.18255-0.071874-0.47526-0.32708-0.47578-0.19635-0.002083-0.375 0.069271-0.54088 0.16849zm4.6914-2.3362c0.10104 0.21146 0.20312 0.43932 0.39688 0.57839 0.26875 0.17917 0.36328 0.52214 0.62318 0.7151 0.275 0.21797 0.36823 0.58724 0.64922 0.8013 0.21849 0.16667 0.33333 0.42943 0.49062 0.64974 0.096094 0.14635 0.25599 0.22917 0.36458 0.36823 0.20599 0.25911 0.31927 0.59088 0.59922 0.7888 0.26354 0.19922 0.33438 0.57318 0.61302 0.75521 0.2612 0.16667 0.32318 0.51198 0.57188 0.6862 0.2737 0.20182 0.38438 0.54349 0.65182 0.74896 0.19115 0.14896 0.28073 0.38438 0.43203 0.56589 0.1875 0.10026 0.40755 0.11302 0.60391 0.19974 0.1026 0.058073 0.04974 0.18255 0.047136 0.27786-0.066927 0.37135-0.025 0.75391-0.022917 1.1268-0.27266 0.027083-0.58281-0.051042-0.81693 0.1401-0.032031 0.48646 0.16484 0.97188-0.018229 1.4469 0.25391 0.06901 0.5138 0.13464 0.78281 0.14375 0.022657 0.77682 0.17917 1.55 0.21797 2.3255-0.25885-0.009896-0.56771-0.11094-0.80052 0.053906 0.069531 0.31536 0.061719 0.64297 0.125 0.96198 0.044792 0.24531-0.041927 0.48385-0.10234 0.72396 0.34271 0.076041 0.69167 0.061979 1.0331-0.009896 0.079688 0.31771 0.14297 0.63672 0.1737 0.95833-0.28646 0.017969-0.58646-0.015104-0.85443 0.12005 0.12839 0.22891 0.26953 0.45052 0.39167 0.68333 0.14349 0.25417 0.17552 0.54948 0.28412 0.81588 0.15156-0.072917 0.30547-0.15703 0.45938-0.24088 0.013541 0.17891 0.036979 0.36042 0.06302 0.53151 0.26745 0.078125 0.5375 0.14583 0.8013 0.21745 0.019011-0.1388-0.009635-0.3 0.10677-0.40391 0.17057-0.16953 0.34948-0.35339 0.57943-0.42344 0.25885-0.035937 0.52656-0.042969 0.78438-0.095052 0.34792-0.071875 0.69167 0.061979 1.0367 0.084896 0.31641 0.032031 0.63542 0.010937 0.95312 0.015885 0.41901 0 0.82578-0.15391 1.2534-0.12083 0.17396 0.009896 0.35755 0.015885 0.52786-0.027083 0.37917-0.090886 0.76693-0.11042 1.1458-0.072917 0.47396 0.039062 0.96068-0.05599 1.4359-5.21e-4 0.43151 0.039063 0.84896 0.28281 1.0047 0.69922 0.098959-0.034115 0.21276-0.041927 0.29531-0.11719 0.041146-0.10156 0.004167-0.24896 0.10677-0.31875 0.22891 0 0.45885 0.057032 0.68542 0.065886 0.19036-0.036979 0.36432-0.11536 0.55182-0.14297-0.063021-0.44662 0.070052-0.89167 0.039323-1.3409-0.33229-0.20052-0.74896-0.12995-1.1154-0.13177 0.020312-0.29271 0.089583-0.58906 0.11641-0.88542 0.39531 0.035938 0.83542 0.060938 1.1648-0.21224 0.061718-0.30886-0.010417-0.61432-0.023698-0.92057 0.041666-0.22891 0.069531-0.46641-2.61e-4 -0.69662-0.30286 0.061979-0.60911 0.033073-0.91172 0.009896 0.079687-0.71901 0.12344-1.4419 0.18307-2.1659 0.16016-0.17266 0.41667-0.11328 0.61927-0.20052 0.15156-0.072917 0.24141-0.22136 0.35312-0.3474-0.10573-0.44662-0.1599-0.90677-0.22057-1.3635-0.2651-0.045052-0.53151-0.065104-0.79922-0.015104-0.004427-0.40521 0.013802-0.81562-0.045834-1.2133-0.002343-0.11771-0.064583-0.25026 0.029167-0.34896 0.17917-0.14088 0.41693-0.19818 0.58958-0.36406 0.10651-0.1487 0.20182-0.31615 0.35573-0.44219-0.41224-0.30573-0.57162-0.8138-0.87005-1.2133-0.10156 0.12839-0.19661 0.25365-0.26693 0.40599-0.27083 0.57005-0.58307 1.1135-0.95417 1.6159-0.45625 0.58724-1.132 0.90625-1.7479 1.2833-0.26797 0.1487-0.51719 0.34323-0.81484 0.42786-0.40052 0.11198-0.79219 0.25286-1.1938 0.34844-0.44036 0.14427-0.91068 0.1112-1.3685 0.11302-0.41536 0-0.84427 0.038021-1.2482-0.11172-0.35625-0.12682-0.74531-0.16615-1.0789-0.34062-0.36484-0.28307-0.69714-0.6112-0.98281-0.97578-0.22474-0.24792-0.39453-0.54583-0.65312-0.7651-0.44609-0.40469-0.68412-0.95911-1.006-1.4547-0.44505-0.090625-0.77604-0.44505-1.126-0.70339-0.2625-0.18307-0.35573-0.50964-0.61198-0.69635-0.39479-0.33333-0.50911-0.89375-0.90364-1.2271-0.27604-0.31927-0.70234-0.42135-1.0047-0.69948-0.43724-0.37578-1.0286-0.49792-1.4859-0.83646-0.43359-0.24193-0.80339-0.5901-1.2458-0.81849zm17.769-9.3883c-0.14115 0.079688-0.26875 0.18828-0.38698 0.30156 0.1099 0.11276 0.22344 0.23177 0.3724 0.29557 0.1474 0.047656 0.30521 0.055468 0.4388 0.13698 0.24505 0.12552 0.59531 0.085937 0.7349 0.3763-0.46901 0.025521-0.89245-0.34141-1.368-0.22708-0.24766 0.01224-0.26172 0.30104-0.25078 0.48984 0.25365 0.23932 0.6224 0.31615 0.90495 0.50417 0.4526 0.060677 0.87526 0.24141 1.3203 0.33203 0.2737 0.24427 0.7388 0.2125 0.98698-0.054687 0.36667-0.29609 0.63177-0.36641 0.88229-0.77188-0.16641-0.20417-0.40755-0.38646-0.59401-0.5362-0.3737-0.18438-0.76484-0.34115-1.1185-0.56328-0.20365-0.05651-0.41146-0.076822-0.5875-0.20104-0.3388-0.11172-0.69766-0.18594-1.0641-0.18776-0.095312 0.021875-0.18438 0.059896-0.26901 0.10781zm-21.716 14.653c-0.08724 0.051302-0.16953 0.11432-0.24349 0.18984 0.29062 0.55703 0.57734 1.1503 1.0909 1.5398 0.46354 0.41953 0.93802 0.94323 1.5818 1.068 0.088282-0.4776 0.16641-0.95781 0.28464-1.4279-0.50859-0.32474-0.90573-0.77552-1.3542-1.1701-0.16979-0.12786-0.23203-0.43047-0.48229-0.40833-0.30391 0.003125-0.61615 0.054688-0.87813 0.20859zm28.002-14.603c-0.32682 0.22109-0.63359 0.48958-0.88177 0.79922-0.13307 0.14714-0.23307 0.3349-0.41589 0.42708-0.65208 0.33047-1.2466 0.75729-1.8516 1.1667-0.20677 0.16562-0.42708 0.32292-0.53984 0.56094-0.26719 0.53359-0.66927 0.96953-1.0128 1.4469-0.15312 0.4401-0.26406 0.9651 0.015625 1.3758 0.23203 0.43047 0.72838 0.63516 1.1771 0.77474 0.58281 0.093229 1.1802 0.25443 1.7745 0.15391 0.30521-0.029687 0.61302-0.069271 0.92318-0.076302 0.4151 0.040625 0.87891 0.20521 1.2596-0.039583 0.15781-0.077084 0.30911-0.2362 0.50052-0.21432 0.083593 0.06901 0.22734-0.15469 0.28594-0.070834 0.30703-0.14036 0.27474-0.18802 0.40521-0.49557 0.071615-0.17864 0.14922-0.21641 0.085678-0.36536 0.29141-0.038281 0.55052-0.20182 0.83828-0.24635 0.15495-0.025 0.27552-0.12162 0.40078-0.19662-0.078646-0.17396-0.15078-0.35182-0.20443-0.54062 0.15391-0.16901 0.36927-0.22083 0.58698-0.24036 0.20521-0.011979 0.29036-0.225 0.41849-0.35156 0.1612-0.11406 0.35651-0.17135 0.50078-0.29948-0.12578-0.32422-0.40052-0.58464-0.41771-0.93984-0.016146-0.16901-0.12839-0.31406-0.18568-0.46667 0.009114-0.18385 0.061718-0.3513 0.10078-0.5276 0.030208-0.1625 0.22057-0.19948 0.33438-0.29323-0.25625-0.18672-0.52474-0.36588-0.78958-0.5388-0.35364-0.26432-0.68958-0.55625-1.0896-0.74193-0.22005-0.097917-0.4612-0.13203-0.6901-0.21615-0.4987-0.19453-1.0643-0.060417-1.5286 0.15781zm-5.699 4.044c-0.028906 0.017188-0.052864 0.043229-0.077864 0.065104-0.28333 0.40729-0.40651 0.8974-0.44844 1.3815-0.10521 0.037239-0.2237 0.066406-0.31276 0.14505-0.099219 0.20365-0.078125 0.48021-0.25234 0.64375-0.24557 0.21458-0.34219 0.5362-0.55026 0.77083-0.09375-0.028906-0.1776-0.055208-0.2651-0.088021-0.28177 0.29609-0.4401 0.67083-0.63932 1.0198 0.078385 0.25885 0.18568 0.50911 0.29896 0.75573 0.17188 0.45807 0.49896 0.8487 0.63984 1.3255 0.21927 0.52318 0.12109 1.1258 0.40052 1.6214 0.16719 0.30807 0.23542 0.64948 0.37396 0.96615 0.16172-0.15599 0.28438-0.34844 0.47838-0.46458 0.23906-0.16849 0.52188-0.27839 0.72135-0.49896 0.32318-0.39714 0.83386-0.56641 1.2331-0.8651 0.053646-0.10911 0.050261-0.24245 0.12188-0.3362 0.21198-0.22812 0.50234-0.36797 0.7349-0.57552 0.19531-0.14245 0.33307-0.35234 0.55729-0.46068 0.80104-0.35156 1.4872-0.92318 2.0659-1.5755 0.21823-0.23177 0.50964-0.39818 0.69141-0.67682-0.3151-0.015365-0.63646-0.069792-0.94922-0.095313-0.59401 0.015365-1.1883 0.15833-1.7799 0.078906-0.26875-0.051562-0.53776-0.10338-0.81536-0.14115-0.42656-0.059375-0.8026-0.2763-1.1536-0.50807-0.30234-0.19297-0.48073-0.51979-0.63542-0.83516-0.11823-0.39661-0.055209-0.81667 0.049219-1.2107 0.065364-0.21745-0.11458-0.39036-0.19922-0.56068-0.097396 0.039583-0.20312 0.064323-0.28802 0.11875zm-19.072 12.097c-0.24167 0.26354-0.17734 0.64141-0.27786 0.95625-0.014062 0.20391-0.16068 0.4276-0.044791 0.62162 0.32864 0.15182 0.7013 0.19219 1.0516 0.28047 0.3013 0.091928 0.63906 0.016927 0.90286 0.21641 1.2378 0.36432 2.5055 0.65156 3.7797 0.84948 0.062761-0.1224 0.13802-0.25234 0.12057-0.39505-0.047135-0.32031-0.077864-0.64167-0.10234-0.96693-0.61146-0.084896-1.2167-0.25807-1.8305-0.33281-0.55156-0.070052-1.0727-0.25911-1.5854-0.4625-0.69245-0.20599-1.3135-0.59088-2.0138-0.76693zm-3.3185 2.8344c-0.094531 0.4388 0.029948 0.95938 0.41849 1.2112 0.78412-0.009896 1.5823-0.010937 2.3599 0.15208 0.11953-0.45391 0.48255-0.75599 0.73568-1.1284-0.42865-0.26198-0.91875-0.38542-1.4039-0.4862-0.4263-0.10182-0.87422-0.054948-1.3143-0.038021-0.29141 0-0.53672 0.16823-0.79583 0.28906zm-1.5349 0.96458c-0.3349 0.20026-0.66979 0.40052-0.99896 0.61042-0.33646 0.21875-0.70338 0.38698-1.0188 0.62682-0.024479 0.45651 0.32891 0.84844 0.77162 0.90651 0.39922-0.25625 0.81875-0.47812 1.1867-0.78672 0.40964-0.42344 0.9737-0.65938 1.456-0.98984-0.18854-0.28672-0.35312-0.60443-0.38646-0.95859-0.3401 0.19167-0.67526 0.39115-1.0102 0.59141zm-2.3229 1.963c-0.12682 0.27109-0.28099 0.525-0.3138 0.825-0.034115 0.3263-0.13984 0.70391 0.12005 0.98203 0.20651-0.12344 0.43698-0.23568 0.57865-0.43932 0.17786-0.24219 0.41588-0.46979 0.49141-0.76979-0.1612-0.05599-0.3401-0.084896-0.4849-0.18568-0.14375-0.12656-0.26588-0.27422-0.39088-0.41198zm7.9974-2.7266c-0.24323 0.24688-0.39974 0.55338-0.63281 0.80338-0.17682 0.17318-0.24062 0.40729-0.31849 0.63229 0.32734 0.22057 0.7263 0.30495 1.0987 0.43047 0.3513 0.10443 0.6862 0.2526 1.0237 0.39062 1.2135 0.60833 2.4372 1.2193 3.6872 1.7461 0.059115-0.12838 0.12422-0.2612 0.090625-0.4026-0.074479-0.38021-0.057552-0.76432-0.13854-1.1409-0.3724-0.16823-0.7612-0.29245-1.1299-0.45443-0.77005-0.3638-1.531-0.74141-2.257-1.174-0.46979-0.28828-1.0299-0.42943-1.4234-0.83125zm26.062-13.609c-0.028125 0.016927-0.051302 0.042188-0.066666 0.084115-0.066667 0.2862-0.16328 0.5651-0.35886 0.79245 0.05599 0.13646 0.11224 0.27292 0.17448 0.40547-0.051563 0.098438-0.096615 0.19375-0.14167 0.2888 0.092187 0.18281 0.21094 0.36667 0.20052 0.57682-0.005209 0.1901 0.11719 0.33802 0.21068 0.49427 0.41875 0.089323 0.8276 0.21875 1.2026 0.41953 0.076562-0.11328 0.072917-0.2474 0.056771-0.37396-0.03099-0.19401 0.053125-0.38021 0.064583-0.57396 0.027865-0.19505-0.13828-0.35912-0.078125-0.55677 0.044011-0.15391 0.058073-0.3151-0.053125-0.44401-0.15104-0.18151-0.15573-0.41667-0.20182-0.63568-0.22734-0.15286-0.42734-0.37344-0.69219-0.4612-0.094011-0.008073-0.23073-0.061719-0.31771-0.016146zm-2.112 2.3615c-0.30417 0.25886-0.5487 0.57448-0.83932 0.84167-0.50338 0.43698-1.0443 0.85391-1.6625 1.1133-0.35703 0.34089-0.75 0.63568-1.1643 0.90886-0.20547 0.1112-0.31198 0.33099-0.44844 0.51458-0.45234 0.63594-0.94974 1.2393-1.4797 1.8026-0.11406 0.13594-0.26042 0.23255-0.39974 0.34036 0.26588 0.40182 0.41641 0.9237 0.84505 1.1857 0.6026-0.64089 1.2227-1.2664 1.8112-1.9161 0.32917-0.2737 0.5224-0.66094 0.82057-0.95807 0.65651-0.83464 1.4143-1.5852 2.0922-2.3984 0.20182-0.18828 0.064583-0.4888 0.17865-0.71016 0.10052-0.22995 0.19948-0.4763 0.24609-0.725zm-24.948 16.119c-0.22838 0.13672-0.4349 0.30651-0.61068 0.5099-0.44844 0.42969-0.97057 0.96302-0.93672 1.6307 0.47422-0.13073 0.98672 0.029948 1.4461-0.16823 0.18646-0.085937 0.27552-0.29219 0.42969-0.41823 0.20417-0.15599 0.37943-0.34583 0.51354-0.56198 0.009114-0.26901-0.070573-0.54401-0.087761-0.81432-0.013542-0.17891-0.007031-0.3526-0.036719-0.53021-0.24792 0.096875-0.49115 0.21224-0.71771 0.35234zm1.312-0.62318c-0.20703 0.50625-0.061459 1.0482 0.014062 1.5721 0.3138 0.041927 0.62396 0.034896 0.94036 0.065885 1.1044 0.070052 2.1656 0.43828 3.2635 0.55495 0.42526 0.042969 0.83385 0.25755 1.2706 0.19193-0.12943-0.45807-0.36276-0.90469-0.67995-1.2505-0.89427-0.1026-1.7568-0.35156-2.6294-0.56042-0.6013-0.20964-1.2417-0.28568-1.8354-0.52552-0.10521-0.047917-0.2263-0.052083-0.34401-0.048958zm25.689-14.709c-0.069792 0.041927-0.10521 0.14219-0.11198 0.22839-0.14114 0.73021-0.36849 1.444-0.65338 2.1328 0.1487-0.021354 0.30547-0.071875 0.45781-0.044271 0.2237 0.061719 0.41875 0.17448 0.6224 0.27344 0.15938-0.2737 0.19219-0.61615 0.37526-0.87865 0.14948-0.19062 0.043229-0.46771 0.21615-0.64766 0.18438-0.20339 0.089583-0.50391 0.1362-0.7526-0.2862-0.15182-0.6-0.27865-0.9276-0.32917-0.045833-0.009896-0.083072-0.002083-0.11484 0.017448zm-28.33 17.895c0.063281 0.36146 0.18047 0.69948 0.36484 1.0224 0.064323 0.50547 0.41771 0.8974 0.64714 1.338 0.1224 0.1901 0.056771 0.45026 0.19792 0.62943 0.067448 0.11276 0.2125 0.12786 0.32109 0.18177 0.28932-0.24062 0.59479-0.56823 0.55807-0.97109-0.29688-0.55312-0.65-1.0729-0.92812-1.6372-0.067187-0.19766-0.080729-0.41901-0.21562-0.60182-0.31406 0.042969-0.63151 0-0.94557 0.039062zm27.205-14.843c-0.17161 0.23854-0.29219 0.50599-0.47396 0.74219-0.21667 0.29115-0.35625 0.65495-0.68776 0.85312 0.07448 0.38047 0.25781 0.77214 0.62266 0.97031 0.2 0.13542 0.48516 0.14323 0.66432-0.040364 0.30312-0.31719 0.56016-0.68333 0.77943-1.0695 0.23203-0.4362 0.51771-0.89609 0.46224-1.4151-0.1401-0.077864-0.27109-0.16927-0.41979-0.23333-0.30859-0.18932-0.67162 0.027864-0.94714 0.19245zm-1.9935 2.212c-0.24115 0.14427-0.44818 0.35182-0.62578 0.56979-0.30781 0.19583-0.51094 0.50964-0.82656 0.70677-0.17292 0.13724-0.30938 0.32109-0.50599 0.44714-0.7112 0.45912-1.4573 0.8599-2.1669 1.3216 0.047917 0.50651 0.12604 1.0206 0.21302 1.5211 0.21276-0.2125 0.45599-0.37422 0.71276-0.5276 0.58203-0.34818 1.1755-0.69141 1.7474-1.0708 0.18255-0.12083 0.29948-0.32344 0.48724-0.43568 0.66198-0.41328 1.3331-0.7974 1.9854-1.213 0.12161-0.16588 0.23932-0.33854 0.42083-0.44714-0.44505-0.21823-0.83464-0.57162-0.97292-1.0583-0.16823 0.033073-0.32396 0.09948-0.46823 0.18672zm-22.654 15.087c-0.092969 0.3276-0.25599 0.6375-0.50286 0.87838 0.59115 0.24974 1.2779 0.28958 1.8734 0.034896 0.10026-0.14505-0.060937-0.32917-0.18438-0.40807-0.375-0.20078-0.76614-0.4-1.1862-0.50573zm6.5448-2.3422c-0.15807 0.28984-0.058333 0.61276 0.020052 0.91432 0.054688 0.20521 0.24974 0.31797 0.41458 0.42318 0.3151 0.015104 0.62682-0.10286 0.94088-0.14609 0.50182-0.15573 1.0284-0.1987 1.5326-0.36432 0.63307-0.19167 1.3096-0.070052 1.9552-0.18359 0.68177-0.11042 1.3758-0.015105 2.0523 0.10677 0.45026 0.028125 0.89167 0.1125 1.338 0.17708 0.69531 0.1112 1.3961-0.18073 1.9044-0.63776-0.066146-0.13906-0.11953-0.28542-0.18958-0.43073-0.25625-0.059114-0.52969 0.26562-0.79062 0.098958-0.14974-0.16536-0.025781-0.38411-0.004167-0.57552-0.40104-0.28698-0.91641-0.225-1.3831-0.20938-0.37031 0.034114-0.74297-0.048959-1.1094-0.009896-0.31901 0.021094-0.62057 0.14167-0.94323 0.1138-0.50781-0.053125-0.99948 0.1474-1.5086 0.12031-0.47656 0.013021-0.95443 0.009896-1.4195-0.085937-0.34375-0.091927-0.68177 0.067969-1.0258 0.060937-0.16771-0.009895-0.27162 0.12865-0.37656 0.23698 0.038542 0.1638 0.095834 0.31667 0.11432 0.47552 0.021094 0.14896-0.15417 0.2112-0.27292 0.19714-0.43516 0-0.82656-0.2026-1.2479-0.28177zm11.991-5.4549c0.005989 0.16641 0.011979 0.33281-0.008073 0.49766-0.036719 0.33646 0.040364 0.66432 0.0875 0.98438 0.15156-0.072916 0.29922-0.16719 0.46432-0.21823 0.62943-0.15547 1.1354-0.60208 1.7096-0.87812 0.23932-0.12552 0.52292-0.13438 0.75338-0.28906 0.33047-0.17188 0.62865-0.46901 1.019-0.4987 0.23516-0.046875 0.41823-0.22448 0.65833-0.24922 0.34141-0.067969 0.73828-0.22917 0.83099-0.59948-0.27214-0.39818-0.25495-0.95208-0.62969-1.2805-0.44557 0.12188-0.78125 0.45573-1.193 0.66224-0.27552 0.16484-0.61068 0.18672-0.87865 0.36406-0.69948 0.43568-1.426 0.84115-2.1419 1.2635-0.2013 0.13203-0.46172 0.12318-0.67188 0.24036zm-11.857 7.3549c-0.14297 0.3151-0.35599 0.6125-0.36146 0.97266 0.018489 0.2013 0.025521 0.42656 0.14036 0.60443 0.23594 0.39427 0.42656 0.88359 0.89036 1.0482 0.48776 0.090886 0.97786 0.12891 1.4732 0.10469 0.95312 0.015885 1.9099 0 2.863 0.013021 0.36901-0.009896 0.72266 0.12865 1.0891 0.13047 0.59896 0.049999 1.2044 0.009895 1.8062-0.034896 0.25026-0.021875 0.51172-0.067969 0.73073-0.19922 0.47057-0.22188 0.63646-0.75443 1.0383-1.063 0.28958-0.41094 0.46536-0.94115 0.32604-1.444-0.093489-0.24167-0.26588-0.44427-0.36562-0.68229-0.022396-0.12266 0.081511-0.21875 0.12552-0.33021-0.36302 0.30234-0.84088 0.34167-1.2812 0.40078-0.58906-0.046875-1.1667-0.16042-1.7557-0.20755-0.62266-0.10339-1.2591-0.21562-1.8922-0.10912-0.66172 0.11536-1.3583-0.011979-2.0102 0.19089-0.46302 0.14948-0.95703 0.1901-1.4164 0.34557-0.46302 0.10703-0.93568 0.16875-1.4 0.25938zm17.344-9.931c0.18932 0.47292 0.27995 1.0224 0.64844 1.3966 0.55417-0.026042 1.0729 0.17422 1.6193 0.22109 0.35807-0.32474 0.74141-0.62188 1.132-0.90651-0.52604-0.46719-1.2159-0.68333-1.9026-0.76562-0.49896-0.10964-1.0018-0.013021-1.4971 0.053907zm-5.5862 5.5503c-0.020573 0.42031-0.1651 0.84661-0.045573 1.2594 0.94349-0.24141 1.8669-0.53021 2.8016-0.75781 0.73333-0.25156 1.494-0.40052 2.2669-0.47214 0.046614-0.12109 0.15417-0.25365 0.08177-0.3888-0.14193-0.36536-0.13906-0.75807-0.18724-1.1372-0.13646-0.028906-0.28125-0.12917-0.4151-0.040885-0.25547 0.12708-0.48047 0.30495-0.76719 0.36562-0.27396 0.053125-0.50338 0.22422-0.75182 0.34818-0.67943 0.22812-1.3703 0.43698-2.0758 0.57865-0.30182 0.078125-0.62682 0.10286-0.90703 0.24505zm-11.43 7.388c-0.058073 0.3151-0.34583 0.44479-0.5888 0.60703-0.10286 0.15469-0.17057 0.3401-0.18594 0.5276 0.13099 0.30417 0.33698 0.56328 0.49297 0.8526 0.10364 0.15912 0.17083 0.35677 0.34714 0.43828 0.35365 0.17943 0.74766 0.28386 1.1164 0.44557 0.28125 0.12943 0.6026 0.14089 0.91146 0.16016 0.69661 0.041927 1.3919 0.19583 2.0911 0.14323 0.44896-0.03099 0.90677 0.009896 1.3471-0.091927 0.78828-0.17422 1.6062-0.25547 2.3659-0.54818 0.57318-0.20677 1.0339-0.62995 1.526-0.97214 0.33438-0.29323 0.40625-0.76979 0.40078-1.1914-0.28984-0.20052-0.6362-0.32474-0.87214-0.59167-0.35573 0.20104-0.69609 0.44193-1.1112 0.4862-0.72292 0.084115-1.4609 0.10052-2.1901 0.060938-0.35391-0.009896-0.68776-0.14089-1.0404-0.13412-0.88047-0.009896-1.7661 0-2.6466-0.009896-0.66042 0-1.3383 0.035938-1.9633-0.18542zm20.522-11.722c-0.27786 0.21745-0.59219 0.38802-0.81016 0.66302 0.14219 0.23802 0.30312 0.46432 0.35677 0.73854 0.057031 0.32266 0.32682 0.56068 0.34531 0.88958 0.01224 0.1625 0.11458 0.30547 0.16198 0.45547 0.039844 0.13776-0.00677 0.34401 0.17839 0.36927 0.3875 0.10807 0.85156 0.1026 1.1747-0.16719-0.13854-0.23177-0.31588-0.45703-0.35677-0.73854-0.021094-0.19141-0.12448-0.35052-0.20573-0.51432-0.098437-0.17891-0.059374-0.39792-0.17682-0.56562-0.21823-0.37917-0.44297-0.75469-0.66745-1.1302zm-3.6911 2.8789c-0.010677 0.4651 0.1375 0.91198 0.26562 1.3536 0.38516 0.11823 0.76641 0.2724 1.1464 0.41068 0.2724 0.10052 0.49349 0.29948 0.76354 0.41016 0.24062-0.27995 0.52109-0.54948 0.66172-0.89714-0.12969-0.20286-0.25208-0.43568-0.46693-0.55338-0.69349-0.4776-1.5286-0.7513-2.3703-0.7237zm-16.953 12.119c-0.24531 0.1724-0.019531 0.52162-0.19609 0.73776-0.071614 0.13594-0.20781 0.2349-0.24557 0.3849 0.052344 0.17266 0.14349 0.33932 0.27708 0.46302 0.25234 0.22292 0.50833 0.45234 0.81953 0.58906 0.39115 0.15703 0.70964 0.4763 1.1451 0.52188 0.49401 0.04401 0.9 0.35391 1.3549 0.53229 0.37005 0.13568 0.74375 0.2776 1.1263 0.36302 0.37005 0.092969 0.70182-0.14792 1.0547-0.1974 0.49427-0.083073 0.97344-0.23359 1.4326-0.43203 0.29375-0.13385 0.62943-0.15547 0.90729-0.33021 0.41198-0.2349 0.77969-0.54323 1.1107-0.88516 0.25286-0.2026 0.53568-0.3974 0.6901-0.69323 0.18047-0.25234 0.094532-0.56641 0.070053-0.84922-0.27109-0.16927-0.46458-0.43594-0.63177-0.7013 0-0.084896 0.046614-0.1638 0.070312-0.2375-0.97031 0.66536-2.1698 0.7625-3.287 0.99714-0.47917 0.10807-0.97057 0.053906-1.4547 0.096875-0.49401 0.040885-0.97812-0.04401-1.4682-0.082031-0.41276-0.051042-0.82917-0.065104-1.2456-0.12188-0.29766-0.042969-0.54115-0.23698-0.83255-0.28385-0.23385 0.021093-0.49401 0-0.69688 0.12786zm20.965-11.366c-0.039843 0.68672-0.072135 1.3857 0.10599 2.0526 0.41406-0.017968 0.57943-0.42344 0.74896-0.73698 0.21953-0.42865 0.20781-0.93151 0.24089-1.4018-0.35651 0.085938-0.72812 0.10391-1.0958 0.085938zm-0.90573 1.0432c-0.22188 0.26849-0.44609 0.54714-0.70651 0.77943 0.34323 0.55964 0.6763 1.1167 1.0008 1.6875 0.37708-0.20807 0.81068-0.1362 1.2161-0.22578-0.17969-0.34297-0.39427-0.67344-0.58646-1.0089-0.11615-0.19401-0.21953-0.39557-0.39688-0.53594-0.22995-0.18542-0.36458-0.45338-0.52682-0.69609zm-19.741 13.156c-0.092448 0.054947-0.1763 0.12422-0.23828 0.2125-0.046615 0.1638 0.053125 0.35912-0.049479 0.51406-0.11745 0.17292-0.23177 0.35104-0.32969 0.52865 0.27109 0.25417 0.6612 0.3099 0.99245 0.45156 0.475 0.14089 0.89245 0.42656 1.3273 0.64219 0.83255 0.28385 1.6865 0.50391 2.5557 0.62161 0.3026 0.022917 0.57188-0.13802 0.85339-0.22135 0.29036-0.096875 0.59792-0.09401 0.89062-0.15885 0.65312-0.18672 1.1969-0.61328 1.8247-0.87031 0.36797-0.19453 0.71875-0.41823 1.0693-0.62786 0.2401-0.1099 0.34323-0.4349 0.22474-0.66146-0.11953-0.32786-0.33672-0.60573-0.55651-0.8737-0.46406 0.2612-0.85885 0.66667-1.3755 0.8401-0.66927 0.14531-1.2727 0.51458-1.9594 0.6026-0.45156 0.040885-0.86614 0.35651-1.3273 0.22448-0.67656-0.16484-1.3352-0.39974-1.9427-0.73333-0.30495-0.18307-0.6776-0.13854-0.9901-0.29141-0.2349-0.079948-0.42734-0.24583-0.66745-0.30599-0.10338 0.019011-0.20651 0.05599-0.3 0.10938zm20.328-10.328c-0.011979 0.57656 0.14479 1.137 0.28151 1.6927 0.035937 0.13125 0.10338 0.24401 0.19583 0.34167 0.1026 0.015105 0.23385-0.021093 0.27917-0.11562 0.31979-0.61615 0.39088-1.3641 0.17422-2.0247-0.31146 0.033073-0.62422 0.05-0.93073 0.10625zm-20.066 12.761c-0.059896 0.036979-0.11042 0.084114-0.14036 0.15625-0.066146 0.11641-0.12552 0.24505-0.17812 0.37005 0.63646 0.19714 0.84297 0.89792 1.1849 1.3987 0.27969 0.36823 0.08125 0.90312 0.38594 1.2562 0.56745 0.23828 1.1992 0.20052 1.7945 0.28646 0.33385 0.046875 0.64922-0.15052 0.99088-0.13359 0.47266 0.022917 0.94557 0.046094 1.4221 0.033073 0.39531-0.009896 0.77682-0.10781 1.1609-0.17578 0.27656-0.10599 0.53594-0.26927 0.76875-0.44818 0.34974-0.48099 0.24297-1.1141 0.425-1.6479 0.099219-0.24635 0.31588-0.4099 0.46615-0.62708 0.055208-0.091927 0.13542-0.2 0.071614-0.30651-0.094791-0.17266-0.27344-0.28672-0.40208-0.43073 0.1263-0.086979 0.24896-0.16641 0.37682-0.25078-0.20495-0.072917-0.39193 0.18307-0.58698 0.24036-0.77708 0.32031-1.4648 0.91797-2.3414 0.95833-0.50781 0.032031-0.94479 0.39531-1.4638 0.32318-0.75026-0.10365-1.4956-0.26979-2.2107-0.51328-0.51406-0.091927-0.9375-0.41667-1.4023-0.63984-0.097917 0.058073-0.22083 0.091927-0.32057 0.15312zm-4.6927 2.8846c-0.23125 0.13828-0.4526 0.29271-0.65938 0.46406 0.23594 0.35182 0.40286 0.74479 0.67266 1.068 0.43099 0.29453 0.85833 0.58281 1.2443 0.92969 0.27474 0.34557 0.63073 0.6 0.89922 0.94948 0.077865-0.31016 0.12839-0.63776 0.28021-0.92396 0.16563-0.31979 0.26615-0.67734 0.48281-0.96849 0.29193-0.20833 0.61458-0.37917 0.92734-0.56641 0.51224-0.29453 1.1122-0.25729 1.6727-0.37162-0.10729-0.25026-0.22812-0.50938-0.24271-0.78958-0.008594-0.19896-0.028125-0.41667-0.15547-0.58698-0.23724-0.36797-0.40417-0.80338-0.7651-1.0805-0.19062 0.20703-0.41458 0.40078-0.50885 0.66979-0.040105 0.075-0.045313 0.17995-0.12292 0.2349-0.32162 0.030989-0.63021-0.072917-0.94792-0.078907-0.55052 0.032032-1.1034 0.15859-1.6102 0.37682-0.38333 0.22943-0.78568 0.4362-1.1688 0.67109zm-0.9224 0.91927c-0.13906 0.19375-0.28698 0.40104-0.32109 0.64245-0.1375 0.77891-0.021094 1.5846 0.14792 2.3503l0.48281 0.80729c0.44349 0.37214 1.0208 0.65573 1.6164 0.61406 0.29401-0.090886 0.58932-0.16562 0.87474-0.28516 0.10026-0.059896 0.27031-0.10208 0.25312-0.24453-0.008334-0.24141 0.005729-0.48776-0.057813-0.72188-0.29818-0.48438-0.73802-0.85026-1.125-1.256-0.33099-0.31198-0.69088-0.57266-1.0656-0.81562-0.3987-0.25443-0.53932-0.73125-0.80521-1.0906zm4.7474 0.57057c-0.12604 0.075-0.24688 0.15912-0.37344 0.2349-0.32682 0.17812-0.38854 0.5724-0.55156 0.88229-0.29088 0.5651-0.29818 1.2065-0.33021 1.8206-0.001563 0.15365 0.019531 0.3026 0.069531 0.44271 0.29349 0.29193 0.68854 0.45495 1.0497 0.64688 0.56641 0.22214 1.174 0.25807 1.7693 0.34401 0.55911 0 1.1034-0.15859 1.6513-0.26536 0.1737-0.035938 0.32292-0.14193 0.47318-0.23177-0.14479-0.10026-0.30234-0.19297-0.42969-0.32083-0.46198-0.57344-0.66979-1.2904-1.0755-1.8977-0.26953-0.36562-0.31771-0.82969-0.50234-1.2378-0.13099-0.26146-0.061719-0.55781-0.12135-0.82812-0.31771 0.036979-0.63542 0.073958-0.95833 0.13125-0.24167 0.048958-0.45781 0.15833-0.66797 0.28255zm2.1982-0.67943c-0.06927 0.29609-0.12969 0.62135-0.0125 0.91667 0.16198 0.41302 0.24531 0.86458 0.50234 1.2378 0.21719 0.32057 0.37188 0.67838 0.54271 1.0352 0.19349 0.30938 0.33047 0.69479 0.66276 0.89531 0.29609 0.19688 0.53333 0.47995 0.83594 0.67292 0.20886 0.035938 0.4138 0.023959 0.62162 0 0.46953-0.36588 0.70547-0.92344 1.0326-1.3995 0.16927-0.22865 0.26588-0.50755 0.4276-0.7487 0.18177-0.27865 0.35599-0.56979 0.46276-0.8888 0.24114-0.62005 0.60833-1.2135 0.68177-1.8865-0.93359 0.32891-1.9292 0.35495-2.9008 0.26484-0.38021-0.053125-0.72188 0.18542-1.0984 0.13854-0.58516-0.083073-1.1943-0.051041-1.7581-0.2401zm7.1456-2.7016c-0.30182 0.16302-0.27708 0.53125-0.33385 0.82005-0.036719 0.37891-0.12995 0.74896-0.24661 1.1078-0.14167 0.20365-0.36693 0.38099-0.32995 0.65625 0.34505 0.065104 0.6763 0.20729 1.0404 0.21901 0.32005 0.038021 0.67031 0 0.96146 0.17266 0.31875 0.14922 0.43698 0.50338 0.62812 0.78021 0.25964 0.40573 0.34896 0.89609 0.37838 1.3714 0.32031-0.20338 0.65859-0.37656 0.96875-0.59688 0.53958-0.43333 0.80703-1.0945 1.1805-1.6492 0.25417-0.27109 0.40104-0.6224 0.51927-0.96484-0.084896-0.084896-0.16979-0.17031-0.2724-0.22812-0.76615-0.44271-1.5773-0.83281-2.4602-0.95912-0.44401-0.032031-0.89036-0.010937-1.3172 0.1-0.17214-0.33047-0.44948-0.58099-0.71667-0.82891zm-0.97604 3.0927c-0.033594 0.020052-0.06224 0.052083-0.078125 0.10391-0.3526 0.83125-0.63281 1.7125-1.1578 2.4688-0.25338 0.54219-0.61302 1.0208-0.91771 1.5344 0.1349 0.097917 0.2875 0.16823 0.4474 0.20807 0.4375 0.12057 0.87526 0.24141 1.3255 0.22708 1.0831 0.091927 2.1766-0.23958 3.0555-0.85859-0.003125-0.47396-0.075-0.94948-0.067968-1.4208 0.011979-0.49141-0.078646-0.99818-0.34323-1.4263-0.13854-0.23151-0.25938-0.53307-0.55573-0.6026-0.43516-0.088021-0.90677-0.009896-1.3292-0.19062-0.10781-0.03099-0.275-0.098958-0.37865-0.042969zm6.0932-0.77396c-0.097917 0.22005-0.19583 0.4401-0.34479 0.63099-0.37969 0.47344-0.59062 1.0586-0.98776 1.5172-0.42344 0.54219-1.0719 0.83646-1.6664 1.1495-0.029166 0.30625 2.61e-4 0.61146 0.05625 0.91823 0.4375 0.20573 0.88125 0.40781 1.35 0.50964 0.31276 0.025 0.60417-0.14062 0.91068-0.15391l0.40677-0.24323c0.017969-0.28281 0.28073-0.43984 0.4487-0.64219 0.23646-0.24401 0.23854-0.61016 0.33281-0.92135 0.14323-0.5276 0.14036-1.0867 0.079948-1.6284-0.043229-0.44167-0.34401-0.78854-0.5862-1.1367z" stroke="#000" stroke-width=".0068372"/>
</svg>
